# xmcd
#
# Track frame offsets:
#	150
#	15232
#	35630
#	50417
#	64212
#	85877
#	104587
#	119715
#	138025
#	156060
#
# Disc length: 2280 seconds
#
# Revision: 0
# Processed by: cddbd v1.5.1PL2 Copyright (c) Steve Scherf et al.
# Submitted via: dBpowerAMP V4.0
#
DISCID=8108e60a
DTITLE=Gerd og Tor Kleppe - Ære være gud
DYEAR=1900
DGENRE=Gospel
TTITLE0=Jeg vil gi deg mitt hjerte
TTITLE1=Jeg elsker deg Jesus
TTITLE2=Min sang den er om Jesus
TTITLE3=Bruk du meg/La meg få bringe
TTITLE4=Ære være Gud
TTITLE5=Ved dagens gry
TTITLE6=Jeg er Guds barn
TTITLE7=Verdig er du
TTITLE8=Fader i Himlen
TTITLE9=Kom nå til Jesus
EXTD=
EXTT0=
EXTT1=
EXTT2=
EXTT3=
EXTT4=
EXTT5=
EXTT6=
EXTT7=
EXTT8=
EXTT9=
PLAYORDER=
